<svg width="28" height="25" viewBox="0 0 28 25" fill="none" xmlns="http://www.w3.org/2000/svg">
<g clip-path="url(#clip0_0_269)">
<path d="M27.8286 7.35007C27.7639 6.02172 27.5266 5.1085 27.1866 4.31717C26.8359 3.4772 26.2964 2.72518 25.5895 2.10002C24.8988 1.46513 24.0625 0.971793 23.1453 0.659308C22.266 0.351593 21.2623 0.136784 19.7948 0.0782166C18.3163 0.0146894 17.8469 0 14.0971 0C10.3472 0 9.87787 0.0146894 8.40486 0.0732565C6.93733 0.131824 5.92842 0.346824 5.0544 0.654348C4.12621 0.971793 3.29539 1.46017 2.60472 2.10002C1.90331 2.72518 1.35849 3.48216 1.01306 4.3124C0.6731 5.1085 0.435783 6.01676 0.37108 7.34511C0.300897 8.68338 0.284668 9.10822 0.284668 12.5024C0.284668 15.8967 0.300897 16.3215 0.3656 17.6548C0.430304 18.9832 0.667831 19.8964 1.00779 20.6877C1.35849 21.5277 1.90331 22.2797 2.60472 22.9049C3.29539 23.5398 4.13169 24.0331 5.04892 24.3456C5.92842 24.6533 6.93185 24.8681 8.39959 24.9267C9.87239 24.9854 10.342 24.9999 14.0918 24.9999C17.8417 24.9999 18.311 24.9854 19.784 24.9267C21.2516 24.8681 22.2605 24.6533 23.1345 24.3456C24.9907 23.696 26.4582 22.3677 27.1759 20.6877C27.5156 19.8916 27.7531 18.9832 27.8178 17.6548C27.8825 16.3215 27.8988 15.8967 27.8988 12.5024C27.8988 9.10822 27.8933 8.68338 27.8286 7.35007ZM25.3414 17.5571C25.282 18.7781 25.0554 19.4374 24.8665 19.8769C24.4025 20.966 23.4475 21.8304 22.2443 22.2505C21.7587 22.4214 21.025 22.6265 19.6814 22.6801C18.2246 22.7389 17.7877 22.7534 14.1026 22.7534C10.4174 22.7534 9.97503 22.7389 8.52352 22.6801C7.17465 22.6265 6.44626 22.4214 5.96067 22.2505C5.3619 22.0502 4.81687 21.7328 4.37448 21.3176C3.91587 20.9123 3.56516 20.4239 3.34386 19.8819C3.15502 19.4424 2.92845 18.7781 2.86923 17.5621C2.80431 16.2435 2.7883 15.8478 2.7883 12.5122C2.7883 9.17652 2.80431 8.77609 2.86923 7.46243C2.92845 6.24149 3.15502 5.58218 3.34386 5.14264C3.56516 4.60047 3.91587 4.10732 4.37996 3.7067C4.82762 3.29158 5.36717 2.97414 5.96615 2.77402C6.45174 2.60309 7.18561 2.39801 8.529 2.34421C9.98578 2.28564 10.4229 2.27095 14.1078 2.27095C17.7985 2.27095 18.2354 2.28564 19.6869 2.34421C21.0358 2.39801 21.7641 2.60309 22.2497 2.77402C22.8485 2.97414 23.3935 3.29158 23.8359 3.7067C24.2945 4.11209 24.6453 4.60047 24.8665 5.14264C25.0554 5.58218 25.282 6.24626 25.3414 7.46243C25.4061 8.78105 25.4223 9.17652 25.4223 12.5122C25.4223 15.8478 25.4061 16.2385 25.3414 17.5571Z" fill="white"/>
<path d="M14.0971 6.08032C10.1801 6.08032 7.00201 8.95679 7.00201 12.5025C7.00201 16.0482 10.1801 18.9246 14.0971 18.9246C18.0143 18.9246 21.1921 16.0482 21.1921 12.5025C21.1921 8.95679 18.0143 6.08032 14.0971 6.08032ZM14.0971 16.6684C11.5559 16.6684 9.49469 14.8028 9.49469 12.5025C9.49469 10.2021 11.5559 8.33659 14.0971 8.33659C16.6384 8.33659 18.6995 10.2021 18.6995 12.5025C18.6995 14.8028 16.6384 16.6684 14.0971 16.6684Z" fill="white"/>
<path d="M23.1292 5.82643C23.1292 6.65438 22.3875 7.32571 21.4726 7.32571C20.5579 7.32571 19.8162 6.65438 19.8162 5.82643C19.8162 4.99829 20.5579 4.32715 21.4726 4.32715C22.3875 4.32715 23.1292 4.99829 23.1292 5.82643Z" fill="white"/>
</g>
<defs>
<clipPath id="clip0_0_269">
<rect width="27.6195" height="25" fill="white" transform="translate(0.236084)"/>
</clipPath>
</defs>
</svg>
