<?xml version="1.0" encoding="utf-8"?>
<!-- Generator: Adobe Illustrator 19.2.1, SVG Export Plug-In . SVG Version: 6.00 Build 0)  -->
<svg version="1.1" id="Layer_1" xmlns="http://www.w3.org/2000/svg" xmlns:xlink="http://www.w3.org/1999/xlink" x="0px" y="0px"
	 viewBox="0 0 140 120" enable-background="new 0 0 140 120" xml:space="preserve" width="140" height="120">
<g>
	<path fill="none" stroke="#FFFFFF" stroke-width="2" stroke-linecap="round" stroke-linejoin="round" stroke-miterlimit="10" d="
		M100.7,22.5c-7.1,7.4-23.3,2.7-27.4,6.9"/>
	<path fill="none" stroke="#FFFFFF" stroke-width="2" stroke-linecap="round" stroke-linejoin="round" stroke-miterlimit="10" d="
		M112.7,35.2c0.5-6.4,0.9-13.2,0.8-16.1c-0.2-6.1-4.8-6.9-4.8-6.9S105.7,1,87.4,1C72.6,1,70.1,12.2,64.9,12.2c0,2.5,0,3.8,0,3.8
		s-1.8,1-2.4,3.3c-0.3,1.2,0.3,8.7,1,15.9c-1.2,0.7-2.1,2-2.1,3.5v4.8c0,2,1.5,3.7,3.3,3.9c0.1,0.8,0.1,1.3,0.1,1.3
		c0,13.5,13.2,24.5,23.3,24.5s23.3-10.9,23.3-24.5c0,0,0-0.5,0.1-1.3c1.8-0.3,3.2-1.9,3.2-3.9v-4.8
		C114.8,37.2,113.9,35.8,112.7,35.2z"/>
	<path fill="none" stroke="#FFFFFF" stroke-width="2" stroke-linecap="round" stroke-linejoin="round" stroke-miterlimit="10" d="
		M135.2,95.6c-2.8-9.8-32.2-12.5-32.2-12.5s-5.6,5-14.8,5s-14.8-5-14.8-5S43.9,85.8,41,95.6c-2.8,9.8-4.6,16.7-3.4,18
		c1.2,1.3,15.7,5.4,50.5,5.4s49.3-4.2,50.5-5.4C139.8,112.3,138,105.4,135.2,95.6z"/>
	<path fill="none" stroke="#FFFFFF" stroke-width="2" stroke-linecap="round" stroke-linejoin="round" stroke-miterlimit="10" d="
		M110.4,84.1c0,0-3.2,3.2-6,4.9c-2.9,1.9-8.5,4.8-16.3,4.8S74.6,90.9,71.8,89c-2.6-1.9-6-4.9-6-4.9"/>
	<path fill="none" stroke="#FFFFFF" stroke-width="2" stroke-linecap="round" stroke-linejoin="round" stroke-miterlimit="10" d="
		M43.1,35.1C38.4,40,27.6,36.8,25,39.6"/>
	<path fill="none" stroke="#FFFFFF" stroke-width="2" stroke-linecap="round" stroke-linejoin="round" stroke-miterlimit="10" d="
		M51,43.5c0.3-4.2,0.6-8.8,0.6-10.7c-0.1-4-3.2-4.6-3.2-4.6s-2-7.4-14.1-7.4c-9.8,0-11.5,7.4-14.9,7.4c0,1.7,0,2.5,0,2.5
		s-1.2,0.7-1.6,2.2c-0.2,0.8,0.2,5.8,0.7,10.5C17.6,44,17,44.8,17,45.9v3.2c0,1.3,1,2.4,2.2,2.6c0.1,0.5,0.1,0.9,0.1,0.9
		c0,9,8.8,16.2,15.5,16.2s15.5-7.3,15.5-16.2c0,0,0-0.3,0.1-0.9c1.2-0.2,2.1-1.3,2.1-2.6v-3.2C52.5,44.8,51.9,43.9,51,43.5z"/>
	<path fill="none" stroke="#FFFFFF" stroke-width="2" stroke-linecap="round" stroke-linejoin="round" stroke-miterlimit="10" d="
		M66.1,84c0-0.2-0.1-0.3-0.1-0.5c-1.6-5.5-15.7-7.6-20.1-8.2l0,0l-1.5-3.1L37,76.9l-2.2,4l-2.2-4l-7.5-4.6l-1.5,3.1l0,0
		c-4.4,0.5-18.5,2.7-20.1,8.2c-1.9,6.5-3.1,11.1-2.3,11.9s10.4,3.6,33.5,3.6c1.9,0,3.6,0,5.3-0.1"/>
	
		<polyline fill="none" stroke="#FFFFFF" stroke-width="2" stroke-linecap="round" stroke-linejoin="round" stroke-miterlimit="10" points="
		33.1,84.2 31,86.8 32.9,90.9 34.8,90.9 36.6,90.9 38.5,86.8 36.4,84.2 	"/>
	
		<line fill="none" stroke="#FFFFFF" stroke-width="2" stroke-linecap="round" stroke-linejoin="round" stroke-miterlimit="10" x1="36.6" y1="90.9" x2="38.8" y2="99.1"/>
	
		<line fill="none" stroke="#FFFFFF" stroke-width="2" stroke-linecap="round" stroke-linejoin="round" stroke-miterlimit="10" x1="32.9" y1="90.9" x2="30.7" y2="99.1"/>
</g>
</svg>
