<svg width="213" height="64" viewBox="0 0 213 64" fill="none" xmlns="http://www.w3.org/2000/svg">
<path d="M49.9747 42.166L32.6224 59.5183L22.211 57.7831L20.4758 47.3717L37.8281 30.0194L47.3719 32.6222L49.9747 42.166Z" fill="#9757D7" fill-opacity="0.65"/>
<path d="M33.8369 26.0283L16.4846 43.3806L6.07322 41.6454L4.33799 31.234L21.6903 13.8817L31.2341 16.4846L33.8369 26.0283Z" fill="#45B26B" fill-opacity="0.55"/>
<path d="M52.416 24.4547L33.3883 43.4824L22.0375 41.6455L20.2006 30.2947L39.2283 11.267L49.6277 14.0553L52.416 24.4547Z" fill="#3772FF" fill-opacity="0.84"/>
<path d="M78.5499 42.36C76.4299 42.36 74.6099 41.91 73.0899 41.01C71.5699 40.09 70.3999 38.82 69.5799 37.2C68.7599 35.56 68.3499 33.67 68.3499 31.53C68.3499 29.39 68.7599 27.5 69.5799 25.86C70.3999 24.22 71.5699 22.94 73.0899 22.02C74.6099 21.1 76.4299 20.64 78.5499 20.64C81.0699 20.64 83.1299 21.27 84.7299 22.53C86.3499 23.77 87.3599 25.52 87.7599 27.78H83.5299C83.2699 26.64 82.7099 25.75 81.8499 25.11C81.0099 24.45 79.8899 24.12 78.4899 24.12C76.5499 24.12 75.0299 24.78 73.9299 26.1C72.8299 27.42 72.2799 29.23 72.2799 31.53C72.2799 33.83 72.8299 35.64 73.9299 36.96C75.0299 38.26 76.5499 38.91 78.4899 38.91C79.8899 38.91 81.0099 38.61 81.8499 38.01C82.7099 37.39 83.2699 36.54 83.5299 35.46H87.7599C87.3599 37.62 86.3499 39.31 84.7299 40.53C83.1299 41.75 81.0699 42.36 78.5499 42.36ZM91.0691 42V27.12H94.4891L94.8491 29.91C95.3891 28.95 96.1191 28.19 97.0391 27.63C97.9791 27.05 99.0791 26.76 100.339 26.76V30.81H99.2591C98.4191 30.81 97.6691 30.94 97.0091 31.2C96.3491 31.46 95.8291 31.91 95.4491 32.55C95.0891 33.19 94.9091 34.08 94.9091 35.22V42H91.0691ZM104.824 48.6L108.274 41.01H107.374L101.584 27.12H105.754L109.924 37.59L114.274 27.12H118.354L108.904 48.6H104.824ZM120.864 48.6V27.12H124.284L124.704 29.25C125.184 28.59 125.814 28.01 126.594 27.51C127.394 27.01 128.424 26.76 129.684 26.76C131.084 26.76 132.334 27.1 133.434 27.78C134.534 28.46 135.404 29.39 136.044 30.57C136.684 31.75 137.004 33.09 137.004 34.59C137.004 36.09 136.684 37.43 136.044 38.61C135.404 39.77 134.534 40.69 133.434 41.37C132.334 42.03 131.084 42.36 129.684 42.36C128.564 42.36 127.584 42.15 126.744 41.73C125.904 41.31 125.224 40.72 124.704 39.96V48.6H120.864ZM128.874 39C130.094 39 131.104 38.59 131.904 37.77C132.704 36.95 133.104 35.89 133.104 34.59C133.104 33.29 132.704 32.22 131.904 31.38C131.104 30.54 130.094 30.12 128.874 30.12C127.634 30.12 126.614 30.54 125.814 31.38C125.034 32.2 124.644 33.26 124.644 34.56C124.644 35.86 125.034 36.93 125.814 37.77C126.614 38.59 127.634 39 128.874 39ZM146.478 42C144.918 42 143.668 41.62 142.728 40.86C141.788 40.1 141.318 38.75 141.318 36.81V30.33H138.768V27.12H141.318L141.768 23.13H145.158V27.12H149.178V30.33H145.158V36.84C145.158 37.56 145.308 38.06 145.608 38.34C145.928 38.6 146.468 38.73 147.228 38.73H149.088V42H146.478ZM152.475 42V27.12H155.865L156.195 29.13C156.675 28.41 157.305 27.84 158.085 27.42C158.885 26.98 159.805 26.76 160.845 26.76C163.145 26.76 164.775 27.65 165.735 29.43C166.275 28.61 166.995 27.96 167.895 27.48C168.815 27 169.815 26.76 170.895 26.76C172.835 26.76 174.325 27.34 175.365 28.5C176.405 29.66 176.925 31.36 176.925 33.6V42H173.085V33.96C173.085 32.68 172.835 31.7 172.335 31.02C171.855 30.34 171.105 30 170.085 30C169.045 30 168.205 30.38 167.565 31.14C166.945 31.9 166.635 32.96 166.635 34.32V42H162.795V33.96C162.795 32.68 162.545 31.7 162.045 31.02C161.545 30.34 160.775 30 159.735 30C158.715 30 157.885 30.38 157.245 31.14C156.625 31.9 156.315 32.96 156.315 34.32V42H152.475ZM185.701 42.36C184.421 42.36 183.371 42.16 182.551 41.76C181.731 41.34 181.121 40.79 180.721 40.11C180.321 39.43 180.121 38.68 180.121 37.86C180.121 36.48 180.661 35.36 181.741 34.5C182.821 33.64 184.441 33.21 186.601 33.21H190.381V32.85C190.381 31.83 190.091 31.08 189.511 30.6C188.931 30.12 188.211 29.88 187.351 29.88C186.571 29.88 185.891 30.07 185.311 30.45C184.731 30.81 184.371 31.35 184.231 32.07H180.481C180.581 30.99 180.941 30.05 181.561 29.25C182.201 28.45 183.021 27.84 184.021 27.42C185.021 26.98 186.141 26.76 187.381 26.76C189.501 26.76 191.171 27.29 192.391 28.35C193.611 29.41 194.221 30.91 194.221 32.85V42H190.951L190.591 39.6C190.151 40.4 189.531 41.06 188.731 41.58C187.951 42.1 186.941 42.36 185.701 42.36ZM186.571 39.36C187.671 39.36 188.521 39 189.121 38.28C189.741 37.56 190.131 36.67 190.291 35.61H187.021C186.001 35.61 185.271 35.8 184.831 36.18C184.391 36.54 184.171 36.99 184.171 37.53C184.171 38.11 184.391 38.56 184.831 38.88C185.271 39.2 185.851 39.36 186.571 39.36ZM196.475 42L201.875 34.56L196.475 27.12H200.585L204.365 32.4L208.115 27.12H212.255L206.825 34.56L212.255 42H208.115L204.365 36.72L200.585 42H196.475Z" fill="black"/>
</svg>
