<svg width="16" height="16" viewBox="0 0 16 16" fill="none" xmlns="http://www.w3.org/2000/svg">
<path d="M6.46374 8.90791C6.50774 9.16791 6.58774 9.39991 6.70374 9.60391C6.81974 9.80791 6.97974 9.97191 7.17574 10.0959C7.36374 10.2119 7.59974 10.2759 7.89174 10.2799C8.08374 10.2759 8.25974 10.2439 8.41174 10.1759C8.57574 10.1039 8.71174 10.0079 8.82774 9.88791C8.94374 9.76791 9.03174 9.62391 9.09574 9.46391C9.15974 9.30391 9.19574 9.13191 9.20374 8.95191H10.6357C10.6237 9.32791 10.5477 9.67191 10.4157 9.98391C10.2837 10.2959 10.0917 10.5639 9.85174 10.7919C9.61174 11.0199 9.32374 11.1919 8.98774 11.3159C8.65174 11.4399 8.27974 11.5039 7.87174 11.5039C7.35174 11.5039 6.89974 11.4159 6.51574 11.2359C6.13174 11.0559 5.81174 10.8119 5.55574 10.4999C5.29974 10.1879 5.10774 9.82791 4.98374 9.41591C4.85974 9.00391 4.79974 8.5679 4.79974 8.1079V7.8879C4.79974 7.4239 4.86374 6.9879 4.98774 6.5759C5.11174 6.1639 5.30374 5.8039 5.55974 5.4959C5.81574 5.1879 6.13574 4.9439 6.52374 4.7639C6.91174 4.5839 7.36374 4.4959 7.88374 4.4959C8.25974 4.4959 8.61174 4.5559 8.93974 4.6799C9.26774 4.8039 9.55574 4.9719 9.80374 5.1879C10.0517 5.4039 10.2517 5.6519 10.3957 5.9399C10.5397 6.2279 10.6237 6.5319 10.6357 6.8599H9.20374C9.19574 6.6919 9.15574 6.5399 9.08374 6.3959C9.01174 6.2519 8.91574 6.1319 8.79574 6.0319C8.67574 5.9319 8.53574 5.8519 8.37574 5.7959C8.22374 5.7439 8.06374 5.7159 7.89174 5.7159C7.60374 5.7239 7.36774 5.7839 7.17574 5.9039C6.97574 6.0319 6.81574 6.1959 6.69974 6.3999C6.58374 6.6039 6.50374 6.8359 6.45974 7.09991C6.41574 7.3639 6.39974 7.6199 6.39974 7.8879V8.1079C6.39974 8.3799 6.41974 8.64791 6.46374 8.90791Z" fill="#8F91D0"/>
<path d="M8 16C3.58 16 0 12.42 0 8C0 3.58 3.58 0 8 0C12.42 0 16 3.58 16 8C16 12.42 12.42 16 8 16ZM8 1.6C4.472 1.6 1.6 4.472 1.6 8C1.6 11.528 4.472 14.4 8 14.4C11.528 14.4 14.4 11.528 14.4 8C14.4 4.472 11.528 1.6 8 1.6Z" fill="#8F91D0"/>
</svg>
